<?xml version="1.0" encoding="UTF-8"?>
<svg viewBox="0 0 266.44 229.48" xmlns="http://www.w3.org/2000/svg">
 <g fill="#f07f09" stroke="#000">
  <path d="m195.7 47.688c-2.435-10.059-4.868-20.119-7.303-30.178-0.444-1.838-0.89-3.677-1.334-5.516-0.345-1.424-2.14-1.586-3.359-2.317-3.191-1.914-7.616-4.248-11.352-4.248-3.266 0-7.444 4.789-9.857 6.801-3.301 2.753-4.913 6.986-5.92 11.026-0.983 3.947 1.527 7.807-0.25099 11.945-1.69 3.932-5.874 6.886-9.768 8.346-8.416 3.155-17.331 3.312-25.767-0.086002-3.678-1.481-7.85-3.797-9.99-7.298-2.31-3.779-1.152-8.236-1.152-12.377 0-4.416-2.101-7.971-4.852-11.271-1.085-1.302-3.018-2.968-4.366-4.013-0.862-0.668-4.517-3.458-5.38-3.458-4.171 0-8.136 1.577-11.708 3.722-0.52998 0.319-3.632 1.922-3.707 2.256-0.381 1.688-0.76299 3.377-1.144 5.066-1.426 6.317-2.853 12.634-4.279 18.951-0.59399 2.628-1.187 5.255-1.78 7.883-0.164 0.727-1.08 2.88-0.815 3.612 0.333 0.924 2.838 2.259 3.58 2.849 2.703 2.151 5.406 4.303 8.109 6.455 1.639 1.305 5.383 5.685 7.598 5.676l64.795-0.258c9.384-0.038002 18.768-0.075001 28.151-0.112 2.51-0.010002 2.474 0.209 3.981-1.926 1.778-2.52 3.557-5.039 5.335-7.559 0.82201-1.161 2.281-2.577 2.535-3.971"/>
  <path d="m195.7 47.688c-2.435-10.059-4.868-20.119-7.303-30.178-0.444-1.838-0.89-3.677-1.334-5.516-0.345-1.424-2.14-1.586-3.359-2.317-3.191-1.914-7.616-4.248-11.352-4.248-3.266 0-7.444 4.789-9.857 6.801-3.301 2.753-4.913 6.986-5.92 11.026-0.983 3.947 1.527 7.807-0.25099 11.945-1.69 3.932-5.874 6.886-9.768 8.346-8.416 3.155-17.331 3.312-25.767-0.086002-3.678-1.481-7.85-3.797-9.99-7.298-2.31-3.779-1.152-8.236-1.152-12.377 0-4.416-2.101-7.971-4.852-11.271-1.085-1.302-3.018-2.968-4.366-4.013-0.862-0.668-4.517-3.458-5.38-3.458-4.171 0-8.136 1.577-11.708 3.722-0.52998 0.319-3.632 1.922-3.707 2.256-0.381 1.688-0.76299 3.377-1.144 5.066-1.426 6.317-2.853 12.634-4.279 18.951-0.59399 2.628-1.187 5.255-1.78 7.883-0.164 0.727-1.08 2.88-0.815 3.612 0.333 0.924 2.838 2.259 3.58 2.849 2.703 2.151 5.406 4.303 8.109 6.455 1.639 1.305 5.383 5.685 7.598 5.676l64.795-0.258c9.281-0.036991 18.563-0.074001 27.845-0.111 1.8-7e-3 2.633 0.417 3.663-1.043 2.831-4.01 5.662-8.021 8.493-12.032" stroke-linecap="square" stroke-miterlimit="10"/>
  <path d="m129.63 71.505c-3.506-3.024-9.654-2.874-13.988-2.334-4.963 0.617-10.375 0.028-15.38 0.028-5.057 0-10.148-0.103-15.193-0.382-2.604-0.144-14.329-1.082-9.605-5.762-4.659 2.326-16.862 2.427-16.136-5.38-3.899 1.114-7.883 1.582-11.911 0.769-2.676-0.541-10.426-2.896-7.297-6.914-3.863-0.242-23.71-1.909-16.519-9.989-3.768-0.565-7.974-1.873-11.383-3.578-3.455-1.728-7.548-3.053-10.372-5.882-1.531-1.535-3.015-2.99-0.23-4.105 2.392-0.959 4.648-1.034 7.201-1.034 4.792 0 9.441 0.254 14.258 0.054001 17.837-0.744 34.918-5.341 50.85-13.306 1.921-0.96 3.842-1.921 5.763-2.881-2.85 3.659 2.805 6.038 5.522 6.49 3.148 0.524 6.494-0.124 9.461-1.112 0 2.817-0.222 5.157 1.918 7.299 1.391 1.392 4.663 2.042 6.53 1.154 0.52399 4.189 0.814 8.651 3.035 12.356 2.437 4.063 5.404 7.034 9.418 9.544 5.919 3.7 16.383 5.062 22.508 4.222 6.947-0.952 17.334-3.945 20.826-10.921 2.209-4.413 3.354-8.501 4.003-13.382 0.267-2.009 2.359-0.685 3.981-1.052 1.641-0.372 3.769-1.731 4.325-3.372 0.627-1.852 0.605-3.173 0.289-5.079 4.986 0.83 17.557 2.971 15.366-5.762 8.179 4.089 16.268 7.866 24.888 10.948 8.357 2.988 17.617 4.004 26.413 4.84 4.368 0.415 8.85 0.826 13.235 0.73 4.312-0.094 9.446-0.985 13.528 0.649 4.801 1.922-3.654 6.741-5.462 7.803-3.289 1.933-7.138 3.081-10.752 4.224-1.942 0.614-3.749 1.136-5.763 1.539 3.2 3.336-0.30199 6.786-3.49 7.982-4.222 1.584-8.567 1.727-13.033 2.005 3.104 3.961-4.733 6.494-7.403 6.876-4.284 0.612-7.997 0.319-12.188-0.729 1.957 3.645-3.879 5.856-6.228 6.796-2.792 1.116-7.038-0.174-9.522-1.418 1.744 3.172 0.20401 3.682-2.774 4.875-2.234 0.896-5.49 0.73-7.873 0.947-5.936 0.539-12.02 0.71-17.982 0.71-5.53 0-11.116-0.386-16.675-0.386-2.544 0-5.33 0.115-7.71 1.154-1.568 0.685-1.312 1.165-3.099 1.065-1.78-0.099998-3.565-0.20001-5.35-0.29901"/>
  <path d="m129.63 71.505c-3.506-3.024-9.654-2.874-13.988-2.334-4.963 0.617-10.375 0.028-15.38 0.028-5.057 0-10.148-0.103-15.193-0.382-2.604-0.144-14.329-1.082-9.605-5.762-4.659 2.326-16.862 2.427-16.136-5.38-3.899 1.114-7.883 1.582-11.911 0.769-2.676-0.541-10.426-2.896-7.297-6.914-3.863-0.242-23.71-1.909-16.519-9.989-3.768-0.565-7.974-1.873-11.383-3.578-3.455-1.728-7.548-3.053-10.372-5.882-1.531-1.535-3.015-2.99-0.23-4.105 2.392-0.959 4.648-1.034 7.201-1.034 4.792 0 9.441 0.254 14.258 0.054001 17.837-0.744 34.918-5.341 50.85-13.306 1.921-0.96 3.842-1.921 5.763-2.881-2.85 3.659 2.805 6.038 5.522 6.49 3.148 0.524 6.494-0.124 9.461-1.112 0 2.817-0.222 5.157 1.918 7.299 1.391 1.392 4.663 2.042 6.53 1.154 0.52399 4.189 0.814 8.651 3.035 12.356 2.437 4.063 5.404 7.034 9.418 9.544 5.919 3.7 16.383 5.062 22.508 4.222 6.947-0.952 17.334-3.945 20.826-10.921 2.209-4.413 3.354-8.501 4.003-13.382 0.267-2.009 2.359-0.685 3.981-1.052 1.641-0.372 3.769-1.731 4.325-3.372 0.627-1.852 0.605-3.173 0.289-5.079 4.986 0.83 17.557 2.971 15.366-5.762 8.179 4.089 16.268 7.866 24.888 10.948 8.357 2.988 17.617 4.004 26.413 4.84 4.368 0.415 8.85 0.826 13.235 0.73 4.312-0.094 9.446-0.985 13.528 0.649 4.801 1.922-3.654 6.741-5.462 7.803-3.289 1.933-7.138 3.081-10.752 4.224-1.942 0.614-3.749 1.136-5.763 1.539 3.2 3.336-0.30199 6.786-3.49 7.982-4.222 1.584-8.567 1.727-13.033 2.005 3.104 3.961-4.733 6.494-7.403 6.876-4.284 0.612-7.997 0.319-12.188-0.729 1.957 3.645-3.879 5.856-6.228 6.796-2.792 1.116-7.038-0.174-9.522-1.418 1.744 3.172 0.20401 3.682-2.774 4.875-2.234 0.896-5.49 0.73-7.873 0.947-5.936 0.539-12.02 0.71-17.982 0.71-5.53 0-11.116-0.386-16.675-0.386-2.544 0-5.33 0.115-7.71 1.154-1.568 0.685-1.312 1.165-3.099 1.065-1.78-0.099998-3.565-0.20001-5.35-0.29901" opacity=".45" stroke-linecap="square" stroke-miterlimit="10"/>
  <path d="m127.71 174.46c1.313 0.157 1.874-2.204 2.69-3.074 1.372-1.462 3.253-2.551 4.909-3.656 3.169-2.116 6.494-4.541 9.833-6.214 3.687-1.847 7.021-3.501 9.844-6.649 0.798-0.89 5.844-9.988 3.547-9.988h-8.242c-3.497 0-2.229 0.022003-3.777 2.597-2.211 3.675-5.438 6.529-9.198 8.544-7.417 3.975-14.018 7.66-17.938 15.512-1.289 2.582-0.889 5.511-0.889 8.309 3.201-1.665 6.402-3.331 9.604-4.996-0.129-0.13-0.256-0.257-0.383-0.38501"/>
  <g stroke-linecap="square" stroke-miterlimit="10">
   <path d="m146.92 144.5c0 8.296-10.626 11.563-16.521 14.982-3.11 1.804-7.098 5.183-8.955 8.268-2.516 4.18-2.957 7.284-2.957 12.096"/>
   <path d="m127.71 174.46c1.313 0.157 1.874-2.204 2.69-3.074 1.272-1.355 3.047-2.467 4.61-3.457 3.156-1.999 6.338-4.513 9.604-6.148 7.103-3.559 14.212-8.068 14.212-16.902"/>
  </g>
  <path d="m128.48 199.82c-0.198-3.56 4.621-7.688 6.913-9.988-2.18-1.032-4.361-2.065-6.541-3.098-1.544-0.731-2.854 2.123-3.915 3.183-2.38 2.378-4.85 6.839-4.527 10.288 2.69-0.12799 5.38-0.25699 8.07-0.385"/>
  <path d="m128.48 199.82c-0.198-3.56 4.621-7.688 6.913-9.988-2.18-1.032-4.361-2.065-6.541-3.098-1.544-0.731-2.854 2.123-3.915 3.183-2.38 2.378-4.85 6.839-4.527 10.288" stroke-linecap="square" stroke-miterlimit="10"/>
  <path d="m135.39 205.2c4.026-0.55499 7.554-3.795 9.223-7.299 1.249-2.622 0.83501-2.67-1.805-3.425-3.318-0.94699-6.636-1.896-9.953-2.843-1.374-0.39299-2.222 1.877-2.558 3.209-0.365 1.446-2.421 4.323-2.208 5.748 0.192 1.278 2.417 2.213 3.544 2.59 1.029 0.345 3.842 2.682 3.757 2.02"/>
  <g stroke-linecap="square" stroke-miterlimit="10">
   <path d="m135.39 205.2c3.763-0.519 10.93-5.553 9.99-9.988"/>
   <path d="m228.36 28.48c7.45 1.856 15.963 2.898 23.596 1.949 1.545-0.192 9.921-1.496 10.98-0.413 1.902 1.946-6.934 5.88-8.249 6.444-2.614 1.12-6.066 2.775-8.953 2.775h-12.128c-3.844 0-8.032-1.248-11.798-2.003-2.8-0.561-8.67-1.028-10.735-2.99"/>
   <path d="m200.7 40.387c3.652 3.385 10.629 4.898 15.21 6.618 5.2 1.952 11.255 2.22 16.762 2.22 2.355 0 5.34-1.182 7.295-2.49 2.934-1.963 0.40001-4.426-2.244-4.426-5.998 0-11.531-1.323-17.431-2.303"/>
   <path d="m199.16 44.614c3.39 2.035 7.056 3.249 10.797 4.497 1.926 0.643 3.838 1.28 5.724 2.034 1.39 0.556 4.313 0.84 5.373 1.921 3.186 3.252-6.112 3.185-7.682 3.072-3.714-0.265-6.501-1.749-9.988-2.688"/>
   <path d="m186.87 48.455c2.723 1.373 19.31 6.859 15.367 11.909-2.26 2.894-8.588 0.981-11.286 0.080002-3.706-1.238-7.111-2.659-10.616-4.306"/>
   <path d="m174.96 57.292c2.424 2.007 6.135 2.578 8.839 4.224 1.729 1.052 6.231 4.996 1.538 4.996-1.485 0-2.985 0.567-4.614 0.384-1.947-0.219-3.78-1.009-5.613-1.618-3.951-1.312-7.094-3.781-10.519-6.065"/>
   <path d="m194.55 16.954c4.241 2.131 8.718 3.488 13.057 5.378 2.994 1.304 9.304 5.161 2.309 6.148-9.906 1.398-20.538-3.297-29.584-6.917"/>
   <path d="m186.48 26.559c3.343 1.835 7.339 2.595 10.76 4.224 1.224 0.583 4.361 1.448 4.997 2.689 0.782 1.528-0.51201 1.321-2.012 1.822-4.164 1.391-8.328-1.041-12.064-2.286-4.188-1.396-8.22-3.873-12.051-6.067"/>
   <path d="m171.11 28.096c3.881 2.051 8.217 3.552 11.87 5.988 1.88 1.254 9.637 3.874 9.26 6.688-0.46701 3.488-8.043 1.166-9.844 0.265-4.205-2.104-7.82-5.159-12.051-7.179"/>
   <path d="m171.5 38.466c2.017 2.392 5.029 4.282 7.296 6.532 1.338 1.328 3.958 3.842 0.77 3.842-5.17 0-11.754-5.116-14.983-8.835"/>
   <path d="m161.13 41.925c0.968 1.692 10.924 9.047 9.03 10.949-2.616 2.626-8.266-1.899-10.568-3.266"/>
   <path d="m153.83 48.455c0.772 0.722 6.528 8.067 3.649 8.067-1.876 0-5.99-0.731-6.72-2.305"/>
   <path d="m144.22 53.066c0.93001 1.633 2.693 2.695 2.693 4.61 0 2.065-1.93 2.898-3.844 3.074"/>
   <path d="m149.98 63.821c-0.97099-0.555-3.203-0.706-4.224-0.192-1.18 0.593-2.37 2.661-0.383 3.267"/>
   <path d="m155.37 58.059c-1.227 0.555-2.963-0.026997-3.844 1.154-0.679 0.91-0.325 2.336 0.771 2.88 1.033 0.513 1.585 1.319 2.689 1.729 1.596 0.592 3.353 0.385 5.08 0.385 2.798 0 7.668 0.855 3.369-2.69-2.457-2.027-4.922-3.073-8.065-3.073"/>
  </g>
  <path d="m179.95 10.423c-3.097 0.158-5.509-0.541-8.448 0.769-2.962 1.32-5.013 3.858-7.302 6.146 1.874-2.807 3.496-7.095 6.529-8.835 1.127-0.647 3.508-1.433 4.813-0.649 0.951 0.57 4.267 3.005 4.408 2.569"/>
  <g stroke-linecap="square" stroke-miterlimit="10">
   <path d="m37.809 28.096c-7.63 2.178-15.571 1.92-23.433 1.92-2.301 0-9.293-1.842-10.949-0.193-1.686 1.679 7.407 5.808 8.446 6.254 7.024 3.015 13.475 3.023 21.081 2.437 4.007-0.309 7.855-0.877 11.795-1.667 2.795-0.56 8.675-1.028 10.733-2.99"/>
   <path d="m65.471 40.004c-8.967 5.793-20.426 8.835-31.033 8.835-2.455 0-5.82-1.137-7.854-2.491-3.12-2.077-0.516-4.132 2.007-4.424 5.955-0.689 11.697-1.308 17.67-2.306"/>
   <path d="m67.009 44.229c-3.616 1.706-6.986 3.223-10.802 4.497-1.921 0.642-3.793 1.398-5.717 2.035-1.163 0.385-4.57 0.989-5.38 1.921-2.84 3.271 6.975 3.344 8.465 2.973 1.524-0.379 3.612-0.173 4.981-0.861 1.283-0.645 3.113-1.316 4.611-1.728"/>
   <path d="m79.302 48.071c-3.08 1.541-18.435 6.217-14.984 11.525 2.01 3.09 8.548 1.379 11.286 0.464 3.685-1.231 7.137-2.569 10.613-4.306"/>
   <path d="m91.21 56.907c-2.805 1.334-5.816 2.562-8.453 4.227-1.703 1.076-6.276 4.994-1.537 4.994 3.639 0 6.671 0.175 10.29-1.272 3.922-1.57 7.085-3.424 10.073-6.412"/>
   <path d="m71.619 16.57c-1.666 1.424-4.39 1.789-6.331 2.953-1.947 1.169-4.531 1.513-6.589 2.545-1.643 0.825-4.407 1.017-5.136 2.953-0.594 1.576 1.063 3.075 2.991 3.075 10.34 0 20.094-3.089 29.664-6.917"/>
   <path transform="rotate(40.361 76.996 30.699)" d="m79.686 26.174c-1.964 1.632-6.399 2.751-8.824 3.357-2.637 0.659-5.561 2.396-7.312 4.327 3.054 2.222 9.832 1.479 12.97-0.406 4.384-2.633 9.436-4.33 13.921-6.893"/>
   <path d="m95.052 27.71c-3.27 2.596-8.29 4.146-12.054 6.027-1.789 0.895-9.671 4.366-8.692 7.035 1.173 3.201 8.53 0.537 10.417-0.406 3.55-1.774 8.192-4.227 11.1-6.894"/>
   <path d="m94.669 38.083c-1.999 2.335-4.851 3.805-6.918 6.145-0.742 0.84-3.876 4.227-1.15 4.227 5.94 0 11.515-5.371 15.365-9.22"/>
   <path d="m105.04 41.541c-1.714 4.166-8.835 5.987-8.835 10.948 0 1.373 4.375 0.144 5.081-0.092999 2.166-0.723 3.718-1.979 5.292-3.557"/>
   <path d="m112.34 48.071c-0.924 1.542-5.758 6.682-3.842 8.067 1.649 1.192 6.008-1.71 7.301-2.305"/>
   <path d="m121.94 52.682c-0.756 1.608-2.69 2.627-2.69 4.609 0 1.94 2.557 2.404 4.227 3.073"/>
   <path d="m116.18 63.437c1.479-0.49 2.707-1.108 4.224-0.382 1.651 0.789 2.128 2.227 0.386 3.457"/>
   <path d="m110.8 57.675c3.5-0.622 5.804 1.644 3.076 4.226-2.249 2.129-4.682 1.92-7.684 1.92-3.009 0-7.626 0.438-3.219-2.868 2.605-1.954 4.982-2.895 8.212-2.895"/>
  </g>
  <path d="m86.217 10.038c2.954 0 5.995-0.942 8.835 0.386 2.783 1.301 5.05 4.197 6.914 6.531-1.402-2.805-3.565-6.938-6.145-8.837-3.286-2.419-6.609 0.21-9.604 1.92"/>
  <path d="m108.12 113c-0.973-8.146 12.663-10.251 18.402-10.554 10.314-0.542 20.523-1.177 30.798-2.205 8.45-0.846 17.988-3.798 23.786-10.175 5.627-6.188 0.461-18.761-6.941-21.545-8.165-3.07-16.075-5.922-24.244-1.252-1.41 0.806-4.079 1.718-4.637 3.387-0.66 1.976 2.098 3.299 3.797 3.583 4.475 0.746 8.716 0.8 13.233 0.479 3.821-0.272 9.824 0.833 10.478 5.421 0.717 5.039-3.075 8.376-7.368 10.092-3.73 1.491-9.176 1.393-13.17 2.018-4.392 0.687-8.766 1.08-13.188 1.521-4 0.4-8.124 0.066002-12.125 0.404-4.303 0.36299-8.364 0.60101-12.65 1.456-9.001 1.796-17.314 8.467-17.314 18.137 3.715-0.256 7.428-0.512 11.143-0.767"/>
  <path d="m108.12 113c-0.973-8.146 12.663-10.251 18.402-10.554 10.314-0.542 20.523-1.177 30.798-2.205 8.45-0.846 17.988-3.798 23.786-10.175 5.627-6.188 0.461-18.761-6.941-21.545-8.165-3.07-16.075-5.922-24.244-1.252-1.41 0.806-4.079 1.718-4.637 3.387-0.66 1.976 2.098 3.299 3.797 3.583 4.475 0.746 8.716 0.8 13.233 0.479 3.821-0.272 9.824 0.833 10.478 5.421 0.717 5.039-3.075 8.376-7.368 10.092-3.73 1.491-9.176 1.393-13.17 2.018-4.392 0.687-8.766 1.08-13.188 1.521-4 0.4-8.124 0.066002-12.125 0.404-4.303 0.36299-8.364 0.60101-12.65 1.456-9.001 1.796-17.314 8.467-17.314 18.137" stroke-linecap="square" stroke-miterlimit="10"/>
  <path d="m126.56 115.3c-0.64-29.837-1.281-59.674-1.921-89.511 5.378 0.128 10.756 0.256 16.134 0.385-0.53601 17.704-1.072 35.407-1.609 53.111-0.30499 10.059-0.60899 20.118-0.914 30.177-0.054993 1.805-0.10899 3.609-0.164 5.414-0.005997 0.199-10.392 0.387-11.526 0.424"/>
  <path d="m126.56 115.3c-0.64-29.837-1.281-59.674-1.921-89.511 5.378 0.128 10.756 0.256 16.134 0.385-0.89601 29.581-1.792 59.162-2.688 88.743" stroke-linecap="square" stroke-miterlimit="10"/>
  <path d="m137.31 144.88c-0.56401 20.607-1.129 41.216-1.693 61.823-0.204 7.434-0.407 14.866-0.61099 22.299-0.02301 0.832-4.93 0.22-5.365 0.11-0.681-0.171-0.418-0.972-0.433-1.622-0.085999-3.75-0.172-7.5-0.258-11.251-0.388-16.911-0.77501-33.823-1.164-50.735-0.137-5.965-0.273-11.93-0.41-17.895-0.004997-0.229-0.165-2.341 0.035004-2.349 3.3-0.12601 6.599-0.25301 9.899-0.38"/>
  <g stroke-linecap="square" stroke-miterlimit="10">
   <path d="m137.31 144.88c-0.56401 20.607-1.129 41.216-1.693 61.823-0.204 7.434-0.407 14.866-0.61099 22.299-0.02301 0.832-4.93 0.22-5.365 0.11-0.681-0.171-0.418-0.972-0.433-1.622-0.085999-3.75-0.172-7.5-0.258-11.251-0.54201-23.658-1.085-47.316-1.627-70.975"/>
   <path d="m124.63 31.552c4.621 2.771 10.974 3.214 15.749 0.385"/>
  </g>
  <path d="m132.7 28.862c7.986 0 14.6-6.023 14.6-14.213 0-8.849-6.933-14.6-15.41-14.6-7.472 0-14.939 7.66-13.652 15.411 0.584 3.516 1.415 7.955 4.766 9.966 1.625 0.977 8.313 5.446 9.696 3.436"/>
  <path d="m132.7 28.862c7.986 0 14.6-6.023 14.6-14.213 0-8.407-6.568-14.6-14.839-14.6-7.775 0-14.512 6.611-14.358 14.6 0.169 8.737 6.766 13.29 14.597 14.597" stroke-linecap="square" stroke-miterlimit="10"/>
  <path d="m142.3 185.22c4.488-5.572 5.272-14.092 0.76999-19.979-5.239-6.85-14.46-8.019-20.06-14.417-3.184-3.639-5.658-7.436-0.688-10.937 3.948-2.781 9.123-3.389 13.693-4.341 8.329-1.733 17.128-3.412 24.071-8.614 3.8-2.847 6.771-5.928 8.402-10.496 1.775-4.974 0.27699-8.509-2.134-12.993-3.694-6.87-16.137-9.655-23.204-9.655-8.023 0-16.9 9.99e-4 -24.857-1.243-4.861-0.76-9.708-1.649-14.608-2.095-4.032-0.367-8.516-3.153-9.678-7.213-3.431-11.996 14.165-7.9 20.205-8.906 2.923-0.487 10.131-1.894 5.806-5.898-2.472-2.288-8.245-4.226-11.568-4.226-8.687 0-17.173 2.87-22.586 9.833-2.572 3.308-3.802 7.688-2.469 11.682 1.64 4.916 5.063 7.084 9.467 9.402 16.406 8.636 36.886 3.511 54.24 8.076 3.21 0.844 10.066 2.423 10.592 6.566 0.681 5.375-2.384 8.142-6.4 11.262-6.908 5.367-17.854 5.852-26.119 7.604-5.298 1.123-13.6 4.521-15.998 9.91-2.971 6.679-1.286 14.16 5.185 18.318 5.306 3.409 10.708 6.562 16.03 9.92 2.622 1.655 3.882 3.486 5.954 5.569 1.277 1.284-0.114 7.935-0.19099 9.798 1.585 0.115 5.936 3.255 6.145 3.073"/>
  <path d="m142.3 185.22c4.488-5.572 5.272-14.092 0.76999-19.979-5.239-6.85-14.46-8.019-20.06-14.417-3.184-3.639-5.658-7.436-0.688-10.937 3.948-2.781 9.123-3.389 13.693-4.341 8.329-1.733 17.128-3.412 24.071-8.614 3.8-2.847 6.771-5.928 8.402-10.496 1.775-4.974 0.27699-8.509-2.134-12.993-3.694-6.87-16.137-9.655-23.204-9.655-8.023 0-16.9 9.99e-4 -24.857-1.243-4.861-0.76-9.708-1.649-14.608-2.095-4.032-0.367-8.516-3.153-9.678-7.213-3.431-11.996 14.165-7.9 20.205-8.906 2.923-0.487 10.131-1.894 5.806-5.898-2.472-2.288-8.245-4.226-11.568-4.226-8.687 0-17.173 2.87-22.586 9.833-2.572 3.308-3.802 7.688-2.469 11.682 1.64 4.916 5.063 7.084 9.467 9.402 16.406 8.636 36.886 3.511 54.24 8.076 3.21 0.844 10.066 2.423 10.592 6.566 0.681 5.375-2.384 8.142-6.4 11.262-6.908 5.367-17.854 5.852-26.119 7.604-5.298 1.123-13.6 4.521-15.998 9.91-2.971 6.679-1.286 14.16 5.185 18.318 5.306 3.409 10.708 6.562 16.03 9.92 2.622 1.655 3.882 3.486 5.954 5.569 1.277 1.284-0.114 7.935-0.19099 9.798 2.174 0.15601 4.552 1.94 6.145 3.457" stroke-linecap="square" stroke-miterlimit="10"/>
  <path d="m135.39 225.17c2.022 1.071 4.611-1.339 4.611-3.371 0-2.708-0.39699-4.444-2.773-6.034-4.062-2.72-7.904-4.717-11.441-8.267-0.951 1.797-2.304 4.11-2.304 6.133 0 2.845 0.575 3.569 2.105 5.863 0.588 0.882 3.753 2.075 4.81 2.604 1.655 0.827 3.289 1.937 4.992 3.072"/>
  <path d="m135.39 225.17c2.022 1.071 4.611-1.339 4.611-3.371 0-2.708-0.39699-4.444-2.773-6.034-4.062-2.72-7.904-4.717-11.441-8.267-0.951 1.797-2.304 4.11-2.304 6.133 0 2.845 0.575 3.569 2.105 5.863 0.588 0.882 3.753 2.075 4.81 2.604 1.655 0.827 3.289 1.937 4.992 3.072" stroke-linecap="square" stroke-miterlimit="10"/>
  <path d="m109.27 67.663c0.161 0.239-0.15 0.515 0.383 0.385 1.88-2.054-2.955-1.452-0.769 0 0.487 0.119 0.27901-0.101 0.386-0.385"/>
  <path d="m158.44 68.433c1.526 0.199 1.33-1.046 0.383-1.154-0.99-0.112-1.794 1.029-0.383 1.154"/>
  <path d="m142.69 15.034c2.187 3.69-4.15 9.125-6.919 10.372 3.022-0.416 4.229-1.92 6.232-3.927 1.05-1.052 2.28-5.723 0.68701-6.445"/>
  <path d="m127.32 145.27l-0.588-22.926c-0.020004-0.758-0.539-7.028 0.113-7.049 3.744-0.125 7.488-0.249 11.231-0.373-0.189 7.398-0.37999 14.796-0.569 22.195-0.03299 1.281 0.688 6.773-0.19899 7.769-0.479 0.537-4.278 0.16501-4.994 0.192-1.665 0.063995-3.329 0.127-4.994 0.192"/>
  <g stroke-linecap="square" stroke-miterlimit="10">
   <line x1="138.08" x2="137.31" y1="114.53" y2="144.88"/>
   <line x1="127.32" x2="126.56" y1="145.27" y2="115.3"/>
  </g>
  <path d="m158.82 144.5c-2.711-13.588-17.919-16.074-29.579-18.055-6.403-1.088-11.27-2.563-16.429-6.687-0.688-0.55-5.068-6.733-4.78-6.753-3.688 0.254-7.375 0.507-11.062 0.761 0.944 3.3 1.639 5.943 3.916 8.602 2.223 2.597 4.614 4.511 7.453 6.403 5.338 3.561 12.375 5.293 18.59 6.459 5.413 1.017 12.373 1.445 16.911 4.852 1.092 0.819 2.333 1.414 2.792 2.796 0.45001 1.36 0.274 2.006 1.76 2.006 1.611 9.92e-4 10.019 0.78799 10.428-0.384"/>
  <g stroke-linecap="square" stroke-miterlimit="10">
   <path d="m96.972 113.76c1.564 5.468 3.801 9.544 8.453 13.061 4.331 3.274 9.796 5.436 14.982 6.916 8.11 2.315 23.736 1.639 26.891 11.141"/>
   <path d="m158.82 144.5c-4.938-24.747-42.012-9.696-50.708-31.5"/>
  </g>
  <path d="m135.77 195.59c2.271-3.003-7.228-5.088-9.217-6.146-2.903-1.545-7.245-4.678-7.82-8.11-0.38-2.264 1.148-2.221 3.13-3.252 2.074-1.079 4.149-2.158 6.223-3.237-1.436 3.971 1.798 4.822 4.91 5.861 3.301 1.103 5.886 2.8 8.922 4.319 2.383 1.193 3.955 5.627 3.841 8.261-0.11101 2.579-1.454 1.965-3.784 2.062-2.067 0.085999-4.137 0.213-6.205 0.24199"/>
  <g stroke-linecap="square" stroke-miterlimit="10">
   <path d="m145.38 195.21c2.778-4.902-3.092-9.878-6.53-11.91-2.549-1.506-4.893-2.116-7.684-3.072-2.707-0.92801-4.098-2.555-3.077-5.379"/>
   <path d="m135.77 195.59c1.617-2.138-3.669-4.609-5.569-4.609-5.005 0-10.991-6.803-11.718-11.141"/>
  </g>
  <path d="m120.4 200.2c1.234 7.944 11.206 12.901 17.674 16.137 0.571-2.089 1.92-2.971 1.92-5.465 0-2.897-3.218-4.518-5.38-5.678-2.222-1.192-3.83-3.235-5.762-4.609-1.143-0.813-1.372-0.72299-3.223-0.634-1.742 0.083008-3.486 0.166-5.229 0.24901"/>
  <path d="m120.4 200.2c1.234 7.944 11.206 12.901 17.674 16.137 0.365-1.336 1.92-2.218 1.92-3.758 0-2.577-0.47699-3.636-2.305-5.465-2.752-2.753-7.696-3.311-9.22-7.299" stroke-linecap="square" stroke-miterlimit="10"/>
 </g>
</svg>
